HIERARCHY
ROOT Hips
{
	OFFSET -3.958830 18.904000 13.208200
	CHANNELS 6 Xposition Yposition Zposition Zrotation Yrotation Xrotation 
	JOINT LHipJoint
	{
		OFFSET 0.000000 0.000000 0.000000
		CHANNELS 3 Zrotation Yrotation Xrotation
		JOINT LeftUpLeg
		{
			OFFSET 1.800000 -1.400000 0.085000
			CHANNELS 3 Zrotation Yrotation Xrotation
			JOINT LeftLeg
			{
				OFFSET 2.215000 -6.000000 0.000000
				CHANNELS 3 Zrotation Yrotation Xrotation
				JOINT LeftFoot
				{
					OFFSET 2.500000 -6.900000 0.000000
					CHANNELS 3 Zrotation Yrotation Xrotation
					JOINT LeftToeBase
					{
						OFFSET 0.200000 -0.500000 1.950000
						CHANNELS 3 Zrotation Yrotation Xrotation
						End Site
						{
							OFFSET 0.000000 0.000000 0.000000
						}
					}
				}
			}
		}
	}
	JOINT RHipJoint
	{
		OFFSET 0.000000 0.000000 0.000000
		CHANNELS 3 Zrotation Yrotation Xrotation
		JOINT RightUpLeg
		{
			OFFSET -1.800000 -1.400000 0.085000
			CHANNELS 3 Zrotation Yrotation Xrotation
			JOINT RightLeg
			{
				OFFSET -2.215000 -6.000000 0.000000
				CHANNELS 3 Zrotation Yrotation Xrotation
				JOINT RightFoot
				{
					OFFSET -2.500000 -6.900000 0.000000
					CHANNELS 3 Zrotation Yrotation Xrotation
					JOINT RightToeBase
					{
						OFFSET -0.200000 -0.500000 1.950000
						CHANNELS 3 Zrotation Yrotation Xrotation
						End Site
						{
							OFFSET 0.000000 0.000000 0.000000
						}
					}
				}
			}
		}
	}
	JOINT LowerBack
	{
		OFFSET 0.000000 0.000000 0.000000
		CHANNELS 3 Zrotation Yrotation Xrotation
		JOINT Spine
		{
			OFFSET -0.087000 1.940000 -0.288900
			CHANNELS 3 Zrotation Yrotation Xrotation
			JOINT Spine1
			{
				OFFSET 0.000000 1.950000 0.060000
				CHANNELS 3 Zrotation Yrotation Xrotation
				JOINT Neck
				{
					OFFSET 0.000000 0.000000 0.000000
					CHANNELS 3 Zrotation Yrotation Xrotation
					JOINT Neck1
					{
						OFFSET 0.000000 1.600000 0.340000
						CHANNELS 3 Zrotation Yrotation Xrotation
						JOINT Head
						{
							OFFSET 0.000000 1.667000 -0.240000
							CHANNELS 3 Zrotation Yrotation Xrotation
							End Site
							{
								OFFSET 0.000000 0.000000 0.000000
							}
						}
					}
				}
				JOINT LeftShoulder
				{
					OFFSET 0.000000 0.000000 0.000000
					CHANNELS 3 Zrotation Yrotation Xrotation
					JOINT LeftArm
					{
						OFFSET 2.700000 1.550000 -0.730000
						CHANNELS 3 Zrotation Yrotation Xrotation
						JOINT LeftForeArm
						{
							OFFSET 5.450000 0.000000 0.000000
							CHANNELS 3 Zrotation Yrotation Xrotation
							JOINT LeftHand
							{
								OFFSET 3.450000 0.000000 0.000000
								CHANNELS 3 Zrotation Yrotation Xrotation
								JOINT LeftHandIndex1
								{
									OFFSET 0.750000 0.000000 0.000000
									CHANNELS 3 Zrotation Yrotation Xrotation
									End Site
									{
										OFFSET 0.000000 0.000000 0.000000
									}
								}
							}
						}
					}
				}
				JOINT RightShoulder
				{
					OFFSET 0.000000 0.000000 0.000000
					CHANNELS 3 Zrotation Yrotation Xrotation
					JOINT RightArm
					{
						OFFSET -2.700000 1.550000 -0.730000
						CHANNELS 3 Zrotation Yrotation Xrotation
						JOINT RightForeArm
						{
							OFFSET -5.450000 0.000000 0.000000
							CHANNELS 3 Zrotation Yrotation Xrotation
							JOINT RightHand
							{
								OFFSET -3.450000 0.000000 0.000000
								CHANNELS 3 Zrotation Yrotation Xrotation
								JOINT RightHandIndex1
								{
									OFFSET -0.750000 0.000000 0.000000
									CHANNELS 3 Zrotation Yrotation Xrotation
									End Site
									{
										OFFSET 0.000000 0.000000 0.000000
									}
								}
							}
						}
					}
				}
			}
		}
	}
}
MOTION
Frames: 13
Frame Time: 0.016667
0.337610 17.632980 -2.860700 0.460518 12.203638 -1.593670 -15.110652 13.234771 2.634698 7.579497 -0.558220 -8.128394 -6.149303 5.065746 7.803467 -0.136059 3.850185 3.312938 0.217380 0.181730 0.083500 18.253146 -11.533312 2.117418 -17.065899 -1.142970 -6.747007 2.544286 -4.809573 11.324200 -0.096595 -4.134675 2.947155 0.245930 0.225230 0.094590 -3.883631 -0.855975 -6.669981 7.689453 0.668084 4.298959 -4.849445 1.466590 8.535881 2.681387 -0.270175 -4.662924 -3.386180 -2.815610 37.283018 -2.506860 -3.451750 0.237090 -21.523289 -2.227109 -0.870701 -33.066821 -18.922392 0.054623 41.400835 -55.496719 -18.625932 -3.665820 2.816484 -0.115200 0.233010 -0.168580 0.124630 16.270943 1.703710 3.254172 27.133839 0.635949 -7.965942 -36.573609 44.344943 -12.373544 2.017154 -1.601317 -0.056990 0.106100 -0.032940 0.002120 
0.324510 17.632460 -2.860140 0.470703 12.306467 -1.478528 -15.110938 13.241555 2.634769 7.407527 -0.583815 -8.195276 -5.666478 4.889593 7.463911 -0.154108 3.786326 3.337288 0.217690 0.180750 0.082930 18.252164 -11.535758 2.114860 -17.110446 -1.128183 -6.885489 2.703800 -4.866012 11.512325 -0.093596 -4.141456 2.941902 0.247990 0.228000 0.095910 -3.885686 -0.865324 -6.667124 7.748398 0.658268 4.289003 -4.878242 1.455716 8.417239 2.687081 -0.359504 -4.659657 -3.455580 -2.691155 36.849281 -2.516950 -3.325670 0.079970 -21.614821 -2.180693 -0.866697 -33.105667 -18.693935 -0.034449 41.364893 -55.476550 -18.617228 -3.670023 2.818498 -0.112900 0.235430 -0.171040 0.124360 16.327421 1.717071 3.248237 26.962754 0.587903 -7.898984 -36.277162 43.871888 -12.113639 2.020156 -1.608166 -0.060460 0.107180 -0.030300 -0.000300 
0.296460 17.630590 -2.864980 0.559026 12.302303 -1.387535 -15.107093 13.235452 2.630059 7.214071 -0.608723 -8.293363 -5.395705 4.801621 7.404633 -0.166625 3.746272 3.353481 0.218100 0.182130 0.081440 18.254686 -11.542020 2.121868 -17.269645 -1.111094 -7.092387 2.895311 -4.909199 11.556116 -0.090509 -4.143880 2.938577 0.251280 0.232110 0.094520 -3.896298 -0.838350 -6.668345 7.765097 0.701762 4.345399 -4.939302 1.510650 8.286409 2.696415 -0.358666 -4.584461 -3.410377 -2.795942 36.659004 -2.488650 -3.464660 -0.080980 -21.647608 -2.016913 -0.965460 -32.896738 -18.496230 -0.125186 40.574292 -55.416351 -18.182878 -3.676366 2.827435 -0.111840 0.236420 -0.172130 0.125830 16.328682 1.564782 3.195719 26.674628 0.584716 -7.741263 -35.267993 43.174202 -11.527916 2.030955 -1.614252 -0.063700 0.114080 -0.028810 0.000530 
0.267330 17.623750 -2.875700 0.724566 12.132900 -1.288796 -15.090700 13.236036 2.631158 6.914227 -0.643550 -8.412602 -5.022113 4.685538 7.368388 -0.175435 3.684595 3.374364 0.221490 0.186230 0.074880 18.265449 -11.561775 2.129001 -17.450652 -1.091445 -7.434712 3.110707 -4.973659 11.780074 -0.085988 -4.141098 2.934429 0.252540 0.233810 0.093680 -3.936694 -0.804901 -6.684902 7.995028 0.664412 4.543590 -5.246727 1.517950 8.194168 2.636538 -0.522054 -4.640695 -3.669820 -2.760736 36.522223 -2.119370 -3.747370 -0.230030 -21.505139 -2.099883 -0.986908 -31.949448 -17.980117 -0.431353 39.208581 -55.247056 -17.416518 -3.677944 2.858542 -0.110530 0.231140 -0.172570 0.129480 16.243956 1.767767 3.280145 25.923859 0.567869 -7.512114 -33.582692 42.439847 -10.686989 2.045971 -1.623549 -0.060980 0.115630 -0.027890 0.005260 
0.229570 17.611930 -2.887800 0.822711 11.954934 -1.286921 -15.080184 13.253287 2.629419 7.079998 -0.685298 -8.716094 -5.092935 4.749253 7.781650 -0.186077 3.693525 3.365785 0.227310 0.195080 0.078420 18.267267 -11.581689 2.124216 -17.464072 -1.078792 -7.961293 3.443645 -5.098871 12.375511 -0.078368 -4.137593 2.925966 0.260710 0.232650 0.093150 -3.953591 -0.798232 -6.694449 8.115452 0.558708 4.843564 -5.370911 1.431073 8.120717 2.589681 -0.525424 -4.578920 -3.620574 -2.830927 36.228415 -2.162350 -3.794080 -0.510780 -21.542970 -2.240834 -1.077252 -30.589455 -17.672475 -0.624237 37.236828 -55.234148 -16.384931 -3.689054 2.891278 -0.111030 0.231200 -0.171960 0.129100 16.351953 1.877320 3.246321 25.182686 0.788925 -7.279564 -32.342137 42.009156 -10.123641 2.053029 -1.629695 -0.061520 0.119200 -0.028600 0.004570 
0.191730 17.599890 -2.903180 0.875036 11.779399 -1.401072 -15.072102 13.295169 2.642940 7.314359 -0.707582 -8.898782 -5.194104 4.830483 8.161844 -0.198845 3.719261 3.350181 0.229690 0.193720 0.089160 18.260423 -11.608881 2.110219 -17.456294 -1.070331 -8.592338 3.765038 -5.285297 13.344451 -0.072969 -4.128835 2.918992 0.261030 0.225170 0.089410 -3.957300 -0.828411 -6.727802 8.292173 0.516727 5.408829 -5.431293 1.439874 8.051251 2.584609 -0.535386 -4.662724 -3.657715 -2.618387 36.346865 -2.117190 -3.532540 -0.879540 -21.684971 -2.604692 -1.084428 -29.395414 -17.375946 -0.865686 35.934334 -55.521976 -15.838492 -3.689135 2.895904 -0.093640 0.224090 -0.164450 0.123490 16.473593 2.208177 3.363586 24.446024 0.544554 -7.276431 -31.663013 41.760112 -9.795872 2.054244 -1.619714 -0.068700 0.126350 -0.026770 -0.005440 
0.159230 17.588450 -2.919110 1.025011 11.691281 -1.558948 -15.066079 13.357014 2.665494 7.373482 -0.729247 -9.046154 -5.105690 4.854974 8.491350 -0.200589 3.715281 3.345570 0.231510 0.198690 0.086290 18.248818 -11.667496 2.065466 -17.444300 -1.087911 -9.263354 3.508799 -5.399233 14.721592 -0.063582 -4.118828 2.912162 0.261500 0.223150 0.088160 -3.954998 -0.860247 -6.751990 8.367633 0.409411 6.018901 -5.554870 1.406010 7.980707 2.587177 -0.468218 -4.752545 -3.546969 -2.414009 36.447998 -1.714460 -3.429650 -1.022540 -22.028401 -3.148905 -1.047524 -28.097634 -17.226791 -1.059142 35.157383 -56.105820 -15.625108 -3.684502 2.908423 -0.089040 0.218720 -0.160050 0.124290 16.791874 2.639155 3.484888 23.312405 0.398328 -7.116757 -30.553209 41.039546 -9.219213 2.069087 -1.622561 -0.066940 0.126840 -0.026740 -0.004070 
0.120030 17.569230 -2.930470 1.235775 11.728925 -1.699286 -15.067542 13.390498 2.684650 7.794661 -0.738099 -9.160936 -5.472190 4.995917 8.792001 -0.186907 3.768974 3.318918 0.240140 0.206520 0.090160 18.236506 -11.703073 2.023336 -17.460014 -1.112940 -9.703511 3.358149 -5.525331 15.891445 -0.061577 -4.141445 2.892621 0.262070 0.215510 0.094030 -3.938217 -0.882117 -6.762731 8.282176 0.326606 6.363098 -5.528020 1.390265 8.153875 2.570845 -0.427055 -4.844356 -3.539300 -2.606959 36.570882 -1.648630 -3.671880 -1.005440 -21.815507 -3.421662 -1.003764 -27.451904 -17.295256 -1.036967 34.195427 -57.227631 -15.509676 -3.673302 2.934572 -0.092200 0.214100 -0.156270 0.125250 16.622571 2.884226 3.572750 22.347680 0.461474 -6.814811 -28.465652 40.487101 -8.365754 2.085285 -1.636558 -0.056000 0.116320 -0.031320 -0.001230 
0.077890 17.549810 -2.938140 1.430639 11.356586 -1.860038 -15.056514 13.407632 2.695309 8.169819 -0.734884 -9.221868 -5.803537 5.157872 9.240587 -0.178435 3.827968 3.291616 0.239160 0.205020 0.091020 18.234696 -11.756622 1.997310 -17.526722 -1.102403 -10.374183 3.257480 -5.661537 17.085133 -0.056116 -4.164581 2.872127 0.259450 0.210090 0.094500 -3.945557 -0.825814 -6.780490 8.301694 0.423001 6.791336 -5.671993 1.575181 8.357920 2.687595 -0.158239 -4.999734 -3.063487 -2.792876 36.777238 -1.606180 -3.697560 -0.919790 -21.717969 -3.845508 -0.880644 -26.632543 -17.091883 -1.066952 32.385763 -59.656447 -15.392402 -3.660858 2.964063 -0.090290 0.211220 -0.153830 0.122940 16.306331 3.123073 3.702873 21.709279 0.484617 -6.563326 -26.380276 40.249340 -7.601009 2.094012 -1.639023 -0.054250 0.110840 -0.031770 -0.002660 
0.034380 17.529670 -2.950650 1.634375 11.196325 -1.991353 -15.055120 13.468139 2.703054 8.323311 -0.778426 -9.585315 -5.820045 5.279433 10.022365 -0.181927 3.857572 3.276282 0.244110 0.213350 0.087160 18.222429 -11.806348 1.957497 -17.429469 -1.070927 -11.243906 2.964570 -5.798773 18.780495 -0.050169 -4.197545 2.851054 0.265450 0.214760 0.092460 -3.930293 -0.860251 -6.784190 8.175846 0.244867 7.308170 -5.705138 1.484715 8.612591 2.634411 -0.187483 -5.129200 -3.088946 -2.673058 36.673455 -1.316110 -3.695770 -1.046550 -21.222771 -4.100744 -0.725150 -26.150022 -16.956555 -1.033251 30.839174 -61.906249 -15.385147 -3.651076 2.990543 -0.090130 0.210830 -0.154490 0.129230 15.925747 3.421096 3.684315 20.987844 1.189550 -6.173402 -23.733375 40.044219 -6.681340 2.099191 -1.640182 -0.055320 0.115880 -0.034180 0.000700 
-0.008570 17.516430 -2.962920 1.787840 10.917465 -2.134505 -15.045233 13.510298 2.703774 8.440565 -0.794673 -9.732017 -5.700862 5.323490 10.461424 -0.195210 3.872948 3.269743 0.254390 0.224110 0.099950 18.223195 -11.833470 1.939507 -17.490271 -1.040510 -12.058803 2.996881 -6.011449 20.225235 -0.052767 -4.251878 2.821395 0.275670 0.211720 0.085850 -3.943289 -0.889519 -6.797013 8.437751 0.000264 7.853737 -5.828295 1.350986 8.916037 2.625142 -0.491935 -5.186873 -3.614874 -2.583494 36.500376 -1.439790 -3.684400 -1.557130 -20.806597 -4.108268 -0.616643 -26.109282 -16.791740 -0.918532 29.391229 -64.617620 -15.594847 -3.638620 3.000297 -0.080980 0.205890 -0.149450 0.130500 15.494005 3.643068 3.607827 19.764092 1.683711 -5.800272 -20.004042 40.781687 -5.538201 2.097263 -1.637911 -0.061850 0.130620 -0.039160 -0.003790 
-0.053060 17.502650 -2.972040 1.993613 10.590177 -2.429554 -15.022149 13.571967 2.689265 8.353750 -0.820562 -9.922059 -5.280863 5.339545 11.271916 -0.205315 3.868324 3.263444 0.267250 0.238890 0.111120 18.234580 -11.866702 1.933359 -17.624512 -1.006166 -12.895783 3.096074 -6.308402 21.911696 -0.065081 -4.352076 2.769328 0.282970 0.204880 0.088560 -3.992764 -0.936033 -6.815534 9.002917 -0.388808 8.591894 -6.289490 1.112236 9.131107 2.587863 -1.097089 -5.211183 -4.678019 -1.991863 36.434579 -1.520840 -3.324940 -2.016100 -20.576237 -4.057090 -0.544332 -25.614235 -16.473093 -0.834658 27.375692 -67.478601 -15.515300 -3.635758 3.041637 -0.074580 0.200280 -0.140190 0.131100 15.236965 3.930545 3.493063 18.176768 2.020386 -5.489389 -16.112259 42.119944 -4.373843 2.096515 -1.652344 -0.057930 0.133150 -0.043250 -0.005870 
-0.112100 17.484280 -2.974510 2.161948 10.095017 -2.578328 -15.003052 13.595992 2.672362 8.557581 -0.841087 -10.167950 -5.183219 5.436675 12.007485 -0.213565 3.904810 3.240358 0.271650 0.245920 0.117500 18.248975 -11.892353 1.933712 -17.483863 -0.906558 -13.785863 3.061403 -6.511714 23.419254 -0.070332 -4.442845 2.722750 0.289260 0.200300 0.093770 -4.030327 -0.917638 -6.816092 9.354090 -0.590493 8.966938 -6.706319 1.000950 9.419067 2.652042 -1.340387 -5.235051 -5.056737 -1.764244 36.300563 -1.991570 -2.974620 -2.139830 -19.877793 -3.910050 -0.527146 -25.020683 -16.431158 -0.523308 23.884689 -69.490127 -14.102588 -3.656010 3.114080 -0.077940 0.205430 -0.139080 0.126910 14.368247 3.923804 3.379652 17.433773 2.504178 -5.124762 -11.943393 43.882184 -3.134339 2.089554 -1.683062 -0.055550 0.128410 -0.042570 -0.009940 
